<svg width="23" height="23" viewBox="0 0 23 23" fill="none" xmlns="http://www.w3.org/2000/svg">
<path opacity="0.25" d="M8.872 21.372V9.024L4.3 13.632C4.132 13.776 3.94 13.848 3.724 13.848C3.508 13.848 3.316 13.776 3.148 13.632L1.204 11.688C1.06 11.52 0.988 11.328 0.988 11.112C0.988 10.896 1.06 10.704 1.204 10.536L10.924 0.852C11.092 0.683999 11.284 0.599999 11.5 0.599999C11.716 0.599999 11.908 0.683999 12.076 0.852L21.76 10.536C21.928 10.704 22.012 10.896 22.012 11.112C22.012 11.328 21.928 11.52 21.76 11.688L19.852 13.632C19.684 13.776 19.492 13.848 19.276 13.848C19.06 13.848 18.868 13.776 18.7 13.632L13.768 8.7V21.372C13.768 21.612 13.684 21.816 13.516 21.984C13.372 22.128 13.18 22.2 12.94 22.2H9.7C9.46 22.2 9.256 22.128 9.088 21.984C8.944 21.816 8.872 21.612 8.872 21.372Z" fill="white"/>
</svg>
