<svg width="543" height="543" viewBox="0 0 543 543" fill="none" xmlns="http://www.w3.org/2000/svg">
<mask id="mask0_216:245" style="mask-type:alpha" maskUnits="userSpaceOnUse" x="0" y="0" width="543" height="543">
<circle cx="271.5" cy="271.5" r="222" fill="#F8FDF2" stroke="#F8FDF2" stroke-width="99"/>
</mask>
<g mask="url(#mask0_216:245)">
<circle opacity="0.22" cx="271.5" cy="271.5" r="222" fill="white" stroke="white" stroke-width="99"/>
<path d="M366.592 342.195L352.989 339.023L330.048 349.498L349.742 359.973L366.592 342.195Z" fill="#10D2B8"/>
<path d="M177.036 303.931C197.059 373.142 167.923 393.389 154.454 393.389C143.844 393.389 127.324 349.334 120.814 330.718C118.895 325.259 118.245 319.435 118.913 313.688C121.233 293.486 129.015 244.686 150.968 229.781C161.389 222.954 172.808 217.789 184.818 214.473L201.473 280.167L177.036 303.931Z" fill="#FFCA4A"/>
<path d="M564.126 0L435.625 160.002C435.625 160.002 385.568 239.314 273.139 222.853C273.139 222.853 214.178 200.152 253.685 154.644L361.37 0H564.126Z" fill="#10D2B8"/>
<path d="M-21.0654 541.943L130.93 357.295L176.557 301.926L192.016 283.145C193.504 281.343 194.512 279.192 194.944 276.894C195.375 274.596 195.218 272.227 194.485 270.006C170.901 199.358 195.098 161.124 217.186 149.526C234.635 140.383 246.113 146.818 250.961 150.664C251.627 151.176 252.094 151.905 252.279 152.725C252.465 153.545 252.359 154.403 251.979 155.153C247.908 163.533 237.837 192.849 265.701 213.934C301.078 240.721 409.885 200.615 439.41 156.784C439.89 156.06 440.522 155.448 441.262 154.992C442.002 154.537 442.832 154.247 443.695 154.145C444.558 154.042 445.433 154.129 446.259 154.399C447.085 154.668 447.843 155.115 448.479 155.707C456.44 163.413 467.559 180.189 454.674 206.586C453.859 208.248 453.384 210.056 453.279 211.904C453.173 213.752 453.439 215.602 454.061 217.346C457.413 226.833 461.319 246.916 441.954 261.566C440.167 262.906 438.733 264.661 437.776 266.679C436.819 268.697 436.368 270.917 436.462 273.149C436.777 281.26 434.188 294.324 416.904 302.524C414.375 303.757 412.285 305.737 410.918 308.196C405.486 317.893 385.179 344.111 339.911 347.658L221.93 489.821L184.833 542.093" fill="#FFCA4A"/>
<path d="M272.241 473.63C272.241 473.63 278.496 493.653 252.787 498.142C227.078 502.631 201.309 474.378 201.473 459.608C201.638 445.526 213.58 443.865 220.434 444.449" fill="#10D2B8"/>
<path d="M308.156 438.747C308.156 438.747 317.134 471.953 284.601 474.198C252.068 476.443 208.94 446.139 211.364 420.325C213.175 401.096 236.804 401.126 236.924 401.231" fill="#10D2B8"/>
<path d="M343.637 402.413C343.637 402.413 356.461 431.923 318.436 437.909C280.411 443.895 238.51 416.585 234.021 393.39C229.532 370.194 252.368 359.345 266.21 365.331" fill="#10D2B8"/>
<path d="M366.593 342.689C366.593 342.689 391.15 365.72 363.839 393.404C336.529 421.089 265.268 380.235 263.203 357.31C260.958 332.423 280.412 330.179 294.254 330.927C308.096 331.675 338.085 344.754 348.561 354.481" fill="#10D2B8"/>
<path d="M175.659 298.933C195.682 368.144 167.922 393.39 154.454 393.39C143.844 393.39 127.324 349.334 120.814 330.718C118.895 325.259 118.245 319.435 118.913 313.688C121.233 293.486 129.015 244.686 150.968 229.781C160.961 223.081 171.965 218.029 183.561 214.817" fill="#10D2B8"/>
</g>
</svg>
